<svg xmlns="http://www.w3.org/2000/svg" xmlns:xlink="http://www.w3.org/1999/xlink" width="149" height="43" viewBox="0 0 149 43">
  <defs>
    <clipPath id="clip-path">
      <rect id="Rectángulo_4003" data-name="Rectángulo 4003" width="149" height="43" fill="none"/>
    </clipPath>
  </defs>
  <g id="Grupo_6549" data-name="Grupo 6549" transform="translate(0 0)">
    <g id="Grupo_6548" data-name="Grupo 6548" transform="translate(0 0)" clip-path="url(#clip-path)">
      <path id="Trazado_69017" data-name="Trazado 69017" d="M27.869,14.492v.533H18.624v-.178c0-1.6-1.116-3.112-3.975-3.112-2.725,0-4.065.934-4.065,2,0,4.578,17.91.978,18.133,12.315,0,7.6-5.807,10.669-13.533,10.669C6.566,36.721,0,34.544,0,25.829H9.335c0,3.29,1.92,3.867,4.957,3.867,1.787,0,4.332-.133,4.332-2.044,0-4.4-18.133-.889-18.133-12.8,0-7.113,6.521-9.781,13.8-9.781,7.414,0,13.443,2.89,13.578,9.426" transform="translate(0 -1.853)" fill="#1d1d1b"/>
      <path id="Trazado_69018" data-name="Trazado 69018" d="M52.275,3.315h8.888v6H52.275Zm0,8.758h8.888V35.548H52.275Z" transform="translate(-18.966 -1.213)" fill="#1d1d1b"/>
      <path id="Trazado_69019" data-name="Trazado 69019" d="M114.468,25.084v15.2h-8.887V26.151c0-1.956-.984-3.334-2.814-3.334a3.513,3.513,0,0,0-3.529,3.69V40.289H90.351V26.151c0-1.956-.983-3.334-2.814-3.334a3.514,3.514,0,0,0-3.529,3.69V40.289H75.121V16.814H82.4l.58,3.513A10.238,10.238,0,0,1,91.2,16.281c3.618,0,5.985,1.467,7.145,4.046a10.3,10.3,0,0,1,8.084-4.046c5.45,0,8.039,3.246,8.039,8.8" transform="translate(-27.255 -5.954)" fill="#1d1d1b"/>
      <path id="Trazado_69020" data-name="Trazado 69020" d="M219.9,24.338v15.2h-8.888V25.405c0-1.956-1.027-3.334-2.992-3.334a3.607,3.607,0,0,0-3.707,3.69V39.543h-8.887V16.068h7.28l.58,3.557a10.559,10.559,0,0,1,8.4-4.091c5.582,0,8.217,3.246,8.217,8.8" transform="translate(-70.903 -5.682)" fill="#1d1d1b"/>
      <path id="Trazado_69021" data-name="Trazado 69021" d="M172.372,21.91a13.65,13.65,0,0,0-5.5-10.958V6.887l0-.129C166.692,4.42,164.741,0,158.587,0s-8.1,4.34-8.275,6.635l0,4.292a13.609,13.609,0,0,0-5.558,10.983,13.912,13.912,0,0,0,.466,3.527c.045.192.093.381.146.57l.013.042a13.746,13.746,0,0,0,9.372,9.435V43l10.928-8.908a13.676,13.676,0,0,0,6.695-11.755c0-.065-.011-.127-.012-.193s.012-.155.012-.235M154.987,6.861c.085-.679.494-2.413,3.6-2.413,3.262,0,3.625,1.867,3.7,2.525V8.713a13.831,13.831,0,0,0-3.673-.5,14.159,14.159,0,0,0-3.628.472Zm5.129,21.369.236,3.329H156.8l.315-3.324a6.488,6.488,0,1,1,3-.005" transform="translate(-52.517 0)" fill="#00f1c7"/>
    </g>
  </g>
</svg>
