<svg xmlns="http://www.w3.org/2000/svg" width="105.252" height="30.449" viewBox="0 0 105.252 30.449">
  <g id="LOGOTYPE_FTT" transform="translate(-7093.55 5900.344)">
    <path id="Trazado_68926" data-name="Trazado 68926" d="M319.688,175.114v.376h-6.531v-.127c0-1.132-.79-2.2-2.809-2.2s-2.87.662-2.87,1.418c0,3.24,12.653.69,12.808,8.721,0,5.382-4.1,7.555-9.557,7.555-6.089,0-10.729-1.54-10.729-7.715h6.593c0,2.329,1.355,2.738,3.5,2.738,1.262,0,3.059-.094,3.059-1.446,0-3.118-12.808-.629-12.808-9.068,0-5.034,4.612-6.922,9.749-6.922s9.5,2.047,9.59,6.673Z" transform="translate(6793.55 -6066.512)" fill="#fff"/>
    <path id="Trazado_68927" data-name="Trazado 68927" d="M335.543,173.453h6.277v16.624h-6.277Zm0-6.2h6.277v4.25h-6.277Z" transform="translate(6781.534 -6066.109)" fill="#fff"/>
    <path id="Trazado_68928" data-name="Trazado 68928" d="M378.873,182.284v10.768H372.6V183.04c0-1.385-.7-2.362-1.986-2.362a2.487,2.487,0,0,0-2.494,2.615v9.758H361.84V183.04c0-1.385-.692-2.362-1.986-2.362a2.487,2.487,0,0,0-2.494,2.615v9.758h-6.277V176.428h5.143l.409,2.489a7.227,7.227,0,0,1,5.806-2.864c2.555,0,4.226,1.038,5.049,2.864a7.27,7.27,0,0,1,5.712-2.864c3.849,0,5.679,2.3,5.679,6.236Z" transform="translate(6776.281 -6069.085)" fill="#fff"/>
    <path id="Trazado_68929" data-name="Trazado 68929" d="M450.171,181.777v10.768h-6.277V182.533a2.076,2.076,0,0,0-2.113-2.362,2.554,2.554,0,0,0-2.621,2.615v9.758h-6.277V175.916h5.143l.41,2.517a7.46,7.46,0,0,1,5.934-2.9c3.943,0,5.806,2.3,5.806,6.236Z" transform="translate(6748.627 -6068.91)" fill="#fff"/>
    <path id="Trazado_68930" data-name="Trazado 68930" d="M410.259,185l.165,2.357h-2.508l.221-2.352a4.583,4.583,0,1,1,2.118,0Zm-3.623-15.135c.062-.479.348-1.71,2.546-1.71,2.305,0,2.56,1.325,2.617,1.789v1.235a9.675,9.675,0,0,0-2.593-.352,9.982,9.982,0,0,0-2.565.334v-1.3Zm12.281,10.655a9.661,9.661,0,0,0-3.887-7.758v-2.968c-.127-1.657-1.506-4.785-5.849-4.785s-5.722,3.076-5.844,4.7v3.038a9.643,9.643,0,0,0-3.929,7.776,9.893,9.893,0,0,0,.33,2.5c.033.136.066.273.1.4a.059.059,0,0,0,.01.029,9.715,9.715,0,0,0,6.621,6.682v5.321l7.717-6.307a9.693,9.693,0,0,0,4.729-8.326c0-.047-.009-.089-.009-.136s.009-.108.009-.164Z" transform="translate(6759.943 -6065.351)" fill="#fff"/>
  </g>
</svg>
