<svg xmlns="http://www.w3.org/2000/svg" width="56.054" height="63.58" viewBox="0 0 56.054 63.58">
  <g id="Grupo_6444" data-name="Grupo 6444" transform="translate(-500.424 -16.213)">
    <path id="Trazado_65572" data-name="Trazado 65572" d="M428.728,74.193c-.776.118-1.549.268-2.328.347a8.882,8.882,0,0,1-9.33-5.39,11.068,11.068,0,0,0-1.361-2.943c-.675-.748-1.857-1.011-2.751-1.589-2.325-1.5-4.653-3-6.907-4.6a87.376,87.376,0,0,0-10.809-6.464,3.1,3.1,0,0,1-.992-4.931c2.354-3.09,6.605-3.66,9.881-2.651.841.259,1.662.586,2.455.869-.033-.092-.1-.316-.193-.534q-4.111-10.034-8.223-20.066a5.436,5.436,0,0,1,.707-5.831,5.2,5.2,0,0,1,8.648,1.069c1.22,2.714,2.293,5.5,3.429,8.247.113.273.224.545.389.949a5.2,5.2,0,0,1,5.042-2.249,5.287,5.287,0,0,1,4.274,3.387A5.374,5.374,0,0,1,430,32.946a15.069,15.069,0,0,1,1.517-1.311,5.221,5.221,0,0,1,7.743,2.63c2.09,5.161,4.25,10.3,6.248,15.492a11.671,11.671,0,0,1,.47,6.958,7.981,7.981,0,0,0,.091,2.688,9.121,9.121,0,0,1-4.725,9.484,3.381,3.381,0,0,0-.369.284l-12.244,5.02m15.02-13.872c-.3.224-.474.37-.663.489a1.547,1.547,0,0,1-1.87-.228A1.241,1.241,0,0,1,441.6,58.9a4.393,4.393,0,0,0,.726-.611,7.724,7.724,0,0,0,1.2-1.841,8.878,8.878,0,0,0-.373-6.325c-2-5.125-4.128-10.2-6.235-15.283a2.87,2.87,0,0,0-5.3,2.2c.458,1.188.964,2.357,1.435,3.539a3.343,3.343,0,0,1,.228.849,1.02,1.02,0,0,1-.771,1.134.994.994,0,0,1-1.266-.351,4.3,4.3,0,0,1-.448-.836c-1.082-2.6-2.133-5.22-3.237-7.813a2.73,2.73,0,0,0-3.085-1.567,2.836,2.836,0,0,0-2.351,2.849,4.036,4.036,0,0,0,.3,1.313c1.034,2.573,2.1,5.134,3.145,7.7a1.159,1.159,0,0,1-.883,1.752c-.6.118-1.007-.189-1.365-1.057q-2.36-5.741-4.716-11.483a7.807,7.807,0,0,0-.516-1.036,2.777,2.777,0,0,0-2.936-1.249,2.9,2.9,0,0,0-2.076,4.11q2.588,6.346,5.2,12.685a7.677,7.677,0,0,1,.289.765,1.1,1.1,0,0,1-.634,1.348,1.146,1.146,0,0,1-1.48-.46,5.9,5.9,0,0,1-.3-.687q-5.165-12.59-10.326-25.18c-.1-.232-.178-.47-.294-.69a2.981,2.981,0,0,0-2.77-1.77,2.631,2.631,0,0,0-2.483,1.713,3.387,3.387,0,0,0,.138,2.83Q405,36.585,409.548,47.732c.594,1.461,1.13,2.925,2.552,3.821a.931.931,0,0,1,.265.306,1.054,1.054,0,0,1-.575,1.591,1.334,1.334,0,0,1-1.37-.362c-1.371-1.149-2.735-2.308-4.137-3.42a8.025,8.025,0,0,0-6.339-1.647,5.6,5.6,0,0,0-3.835,2.1c-.479.62-.379.929.273,1.313,3.442,2.03,6.976,3.928,10.272,6.174a99.763,99.763,0,0,0,9.772,6.193c1.464.767,2.954,1.487,4.439,2.213.8.392,1.059.906.763,1.628s-.789.877-1.687.522c-.261-.1-.525-.2-.91-.352a6.511,6.511,0,0,0,4.146,4.056,9.481,9.481,0,0,0,6.445-.567c3-1.189,6-2.4,8.955-3.688a12.221,12.221,0,0,0,2.884-1.765,6.177,6.177,0,0,0,2.286-5.527" transform="translate(110.182 5.198)"/>
    <path id="Trazado_65573" data-name="Trazado 65573" d="M397.771,12.666a1.539,1.539,0,0,1,1.317,1.119c.358.909.76,1.8,1.1,2.716.372,1-.116,1.859-1.05,1.769a1.513,1.513,0,0,1-1.045-.694,22.1,22.1,0,0,1-1.338-3.274c-.119-.378.159-.881.255-1.325l.758-.311" transform="translate(111.104 3.547)" fill="#a3c73d"/>
    <path id="Trazado_65574" data-name="Trazado 65574" d="M408.4,18.389c.483-.2.961-.412,1.452-.591a1.177,1.177,0,0,1,1.624.539,1.162,1.162,0,0,1-.618,1.59c-1.07.5-2.168.942-3.278,1.336a1.1,1.1,0,0,1-1.5-.678,1.175,1.175,0,0,1,.68-1.513c.532-.256,1.091-.454,1.637-.678v0" transform="translate(113.702 4.951)" fill="#a3c73d"/>
    <path id="Trazado_65575" data-name="Trazado 65575" d="M393.3,24.583c.5-.207,1-.433,1.514-.616a1.135,1.135,0,0,1,1.594.577,1.12,1.12,0,0,1-.634,1.574c-1.048.486-1.108,1.373-2.2,1.763a2.8,2.8,0,0,1-2.537-1.079,1.19,1.19,0,0,1,.686-1.571,1.356,1.356,0,0,1,.124-.055q.726-.3,1.45-.594" transform="translate(109.482 6.68)" fill="#a3c73d"/>
    <path id="Trazado_65576" data-name="Trazado 65576" d="M406.219,13.413a5.124,5.124,0,0,1-.146,1.1c-.371.974-.774,1.938-1.2,2.889a1.158,1.158,0,1,1-2.154-.847,25.3,25.3,0,0,1,1.281-3,1.609,1.609,0,0,1,1.11-.686c.333-.036.71.332,1.11.541" transform="translate(112.752 3.604)" fill="#a3c73d"/>
    <path id="Trazado_65577" data-name="Trazado 65577" d="M391.676,17.947a6.126,6.126,0,0,1,1.132.183c.931.356,1.848.746,2.761,1.147a1.172,1.172,0,0,1,.765,1.572,1.131,1.131,0,0,1-1.644.581c-.966-.388-1.927-.795-2.881-1.213a.98.98,0,0,1-.708-1.107,5.405,5.405,0,0,1,.575-1.162" transform="translate(109.521 5.026)" fill="#a3c73d"/>
    <path id="Trazado_65578" data-name="Trazado 65578" d="M443.229,59.807a6.177,6.177,0,0,1-2.286,5.527,12.221,12.221,0,0,1-2.884,1.765c-2.959,1.289-5.953,2.5-8.955,3.688a9.481,9.481,0,0,1-6.445.567,6.511,6.511,0,0,1-4.146-4.056c.385.148.649.248.91.352.9.355,1.39.2,1.687-.522s.038-1.237-.763-1.628c-1.485-.726-2.975-1.446-4.439-2.213a99.766,99.766,0,0,1-9.772-6.193c-3.3-2.245-6.83-4.144-10.272-6.174-.652-.384-.751-.694-.273-1.313a5.6,5.6,0,0,1,3.835-2.1,8.025,8.025,0,0,1,6.339,1.647c1.4,1.112,2.766,2.271,4.137,3.42a1.334,1.334,0,0,0,1.37.362,1.054,1.054,0,0,0,.575-1.591.931.931,0,0,0-.265-.306c-1.422-.9-1.958-2.36-2.552-3.821q-4.537-11.152-9.132-22.279a3.387,3.387,0,0,1-.138-2.83,2.631,2.631,0,0,1,2.483-1.713,2.981,2.981,0,0,1,2.77,1.77c.116.22.2.458.294.69q5.163,12.59,10.326,25.18a5.893,5.893,0,0,0,.3.687,1.146,1.146,0,0,0,1.48.46,1.1,1.1,0,0,0,.634-1.348,7.684,7.684,0,0,0-.289-.765q-2.6-6.342-5.2-12.685a2.9,2.9,0,0,1,2.076-4.11,2.777,2.777,0,0,1,2.936,1.249,7.807,7.807,0,0,1,.516,1.036q2.364,5.739,4.716,11.483c.357.868.767,1.175,1.365,1.057a1.159,1.159,0,0,0,.883-1.752c-1.043-2.57-2.111-5.132-3.145-7.7a4.035,4.035,0,0,1-.3-1.313,2.836,2.836,0,0,1,2.351-2.849,2.73,2.73,0,0,1,3.085,1.567c1.1,2.593,2.156,5.21,3.237,7.813a4.3,4.3,0,0,0,.448.836.994.994,0,0,0,1.266.351,1.02,1.02,0,0,0,.771-1.134,3.343,3.343,0,0,0-.228-.849c-.471-1.183-.977-2.351-1.435-3.539a2.87,2.87,0,0,1,5.3-2.2c2.107,5.083,4.238,10.157,6.235,15.283A8.878,8.878,0,0,1,443,55.937a7.724,7.724,0,0,1-1.2,1.841,4.393,4.393,0,0,1-.726.611,1.241,1.241,0,0,0-.383,1.681,1.548,1.548,0,0,0,1.87.228c.189-.119.361-.265.663-.489" transform="translate(110.701 5.712)" fill="#fff"/>
  </g>
</svg>
