<svg xmlns="http://www.w3.org/2000/svg" xmlns:xlink="http://www.w3.org/1999/xlink" width="343.368" height="448.15" viewBox="0 0 343.368 448.15">
  <defs>
    <clipPath id="clip-path">
      <rect id="Rectángulo_4002" data-name="Rectángulo 4002" width="296.282" height="343.368" transform="translate(0 -17)" fill="none"/>
    </clipPath>
  </defs>
  <g id="VECTORS" transform="translate(-643.434 -804.218)">
    <g id="Grupo_6544" data-name="Grupo 6544" transform="translate(690.52 926)">
      <g id="Grupo_6543" data-name="Grupo 6543" clip-path="url(#clip-path)">
        <path id="Trazado_69016" data-name="Trazado 69016" d="M237.329,241.9h9.741v-5.988l.009,5.988,23.9-.037a25.376,25.376,0,0,0,25.3-25.34l.054-232.515H284.359l-.054,232.515a13.382,13.382,0,0,1-13.342,13.363l-23.9.037h-9.731a20.957,20.957,0,1,0,0,41.915h9.741v0h16.423v9.054h.007v12.815a20.7,20.7,0,0,1-20.674,20.674H228.168v.008H0v11.977H228.2v-.008h14.625a32.688,32.688,0,0,0,32.651-32.651V280.895h-.007v-9.054h1.822a13.68,13.68,0,1,0,0-27.361h-.119a13.7,13.7,0,0,0-13.68,13.681v1.7H247.07v0h-9.741a8.98,8.98,0,1,1,0-17.961m38.141,16.261a1.705,1.705,0,0,1,1.7-1.7h.119a1.7,1.7,0,1,1,0,3.407H275.47Z" fill="#00f1c7"/>
      </g>
    </g>
    <g id="Grupo_6545" data-name="Grupo 6545" transform="translate(660.434 1100.5) rotate(-90)">
      <g id="Grupo_6543-2" data-name="Grupo 6543" clip-path="url(#clip-path)">
        <path id="Trazado_69016-2" data-name="Trazado 69016" d="M237.329,241.9h9.741v-5.988l.009,5.988,23.9-.037a25.376,25.376,0,0,0,25.3-25.34l.054-232.515H284.359l-.054,232.515a13.382,13.382,0,0,1-13.342,13.363l-23.9.037h-9.731a20.957,20.957,0,1,0,0,41.915h9.741v0h16.423v9.054h.007v12.815a20.7,20.7,0,0,1-20.674,20.674H228.168v.008H0v11.977H228.2v-.008h14.625a32.688,32.688,0,0,0,32.651-32.651V280.895h-.007v-9.054h1.822a13.68,13.68,0,1,0,0-27.361h-.119a13.7,13.7,0,0,0-13.68,13.681v1.7H247.07v0h-9.741a8.98,8.98,0,1,1,0-17.961m38.141,16.261a1.705,1.705,0,0,1,1.7-1.7h.119a1.7,1.7,0,1,1,0,3.407H275.47Z" fill="#00f1c7"/>
      </g>
    </g>
  </g>
</svg>
